<svg width="264" height="88" viewBox="0 0 264 88" fill="none" xmlns="http://www.w3.org/2000/svg">
<path fill-rule="evenodd" clip-rule="evenodd" d="M8.80005 32.2667V24.9333H11.7334V29.3333H16.1334V32.2667H8.80005ZM8.80005 11.7333H16.1334V14.6667H11.7334V19.0667H8.80005V11.7333ZM35.2 11.7333V19.0667H32.2667V14.6667H27.8667V11.7333H35.2ZM35.2 32.2667H27.8667V29.3333H32.2667V24.9333H35.2V32.2667Z" fill="white"/>
<path fill-rule="evenodd" clip-rule="evenodd" d="M60.1334 24.9333V32.2667H57.2V27.8667H52.8V24.9333H60.1334ZM60.1334 19.0667H52.8V16.1333H57.2V11.7333H60.1334V19.0667ZM71.8667 19.0667V11.7333H74.8V16.1333H79.2V19.0667H71.8667ZM71.8667 24.9333H79.2V27.8667H74.8V32.2667H71.8667V24.9333Z" fill="white"/>
<path fill-rule="evenodd" clip-rule="evenodd" d="M120.267 30.1864L118.186 32.2666L113.405 27.4853L115.485 25.405L120.267 30.1864Z" fill="white"/>
<path fill-rule="evenodd" clip-rule="evenodd" d="M107.825 27.9164C112.294 27.9164 115.916 24.2943 115.916 19.8249C115.916 15.3554 112.294 11.7333 107.825 11.7333C103.355 11.7333 99.7333 15.3554 99.7333 19.8249C99.7333 24.2943 103.355 27.9164 107.825 27.9164Z" stroke="white" stroke-width="1.5"/>
<path fill-rule="evenodd" clip-rule="evenodd" d="M104.147 19.0893H111.503V20.5605H104.147V19.0893Z" fill="white"/>
<path fill-rule="evenodd" clip-rule="evenodd" d="M108.624 16.1587L108.499 23.5146L107.027 23.4896L107.153 16.1337L108.624 16.1587Z" fill="white"/>
<path fill-rule="evenodd" clip-rule="evenodd" d="M164.204 30.1297L159.437 25.363L157.365 27.4369L162.131 32.2036L164.204 30.1297Z" fill="white"/>
<path fill-rule="evenodd" clip-rule="evenodd" d="M151.8 27.8667C156.256 27.8667 159.867 24.2557 159.867 19.8C159.867 15.3443 156.256 11.7333 151.8 11.7333C147.344 11.7333 143.733 15.3443 143.733 19.8C143.733 24.2557 147.344 27.8667 151.8 27.8667Z" stroke="white" stroke-width="1.5"/>
<path fill-rule="evenodd" clip-rule="evenodd" d="M148.133 19.0667H155.467V20.5333H148.133V19.0667Z" fill="white"/>
<path fill-rule="evenodd" clip-rule="evenodd" d="M112.618 74.7971L110 72.5531L114.4 67.4197H99.7333V64.4864H114.4L110 59.3531L112.618 57.2L120.267 65.9531L112.618 74.7971Z" fill="white"/>
<path fill-rule="evenodd" clip-rule="evenodd" d="M149.915 74.7971L152.533 72.5531L148.133 67.4197H162.8V64.4864H148.133L152.533 59.3531L149.915 57.2L142.267 65.9531L149.915 74.7971Z" fill="white"/>
<path d="M189.2 24.9333V30.2667C189.2 31.3713 190.095 32.2667 191.2 32.2667H206.267C207.371 32.2667 208.267 31.3713 208.267 30.2667V24.9333" stroke="white" stroke-width="2"/>
<path fill-rule="evenodd" clip-rule="evenodd" d="M206.8 20.5333L205.333 19.0666L200.2 23.4666V10.2666H197.267V23.4666L192.133 19.0666L190.667 20.5333L198.733 27.4413L206.8 20.5333Z" fill="white"/>
<path fill-rule="evenodd" clip-rule="evenodd" d="M68.9363 55.7333V61.2597C59.6861 62.4917 55.4665 69.6931 54.2667 75.5333C57.5227 71.3827 62.4273 68.0563 68.9363 68.0563V73.3333L77.7334 64.658L68.9363 55.7333Z" fill="white"/>
<path fill-rule="evenodd" clip-rule="evenodd" d="M19.9466 66L11.7333 57.7867L13.7866 55.7333L21.9999 63.9467L30.2133 55.7333L32.2666 57.7867L24.0533 66L32.2666 74.2133L30.2133 76.2667L21.9999 68.0533L13.7866 76.2667L11.7333 74.2133L19.9466 66Z" fill="white"/>
<rect x="189" y="75" width="19" height="2" fill="white"/>
<path fill-rule="evenodd" clip-rule="evenodd" d="M206.6 65.2666L205.133 63.8L200 68.2V55H197.067V68.2L191.933 63.8L190.467 65.2666L198.533 72.1747L206.6 65.2666Z" fill="white"/>
</svg>
